# Low-Poly Pickaxe 3D Model
o Pickaxe
vt 0.6875 0.1875
vt 0.0625 0.1875
vt 0.1875 0.1875
vt 0.4375 0.1875
vn 0.0000 1.0000 0.0000
vn 0.0000 -1.0000 0.0000
vn 0.0000 0.0000 1.0000
vn 0.0000 0.0000 -1.0000
vn 1.0000 0.0000 0.0000
vn -1.0000 0.0000 0.0000
v 0.0000 -0.4200 0.0240
v 0.0170 -0.4200 0.0170
v 0.0240 -0.4200 0.0000
v 0.0170 -0.4200 -0.0170
v 0.0000 -0.4200 -0.0240
v -0.0170 -0.4200 -0.0170
v -0.0240 -0.4200 0.0000
v -0.0170 -0.4200 0.0170
v 0.0000 -0.3800 0.0220
v 0.0156 -0.3800 0.0156
v 0.0220 -0.3800 0.0000
v 0.0156 -0.3800 -0.0156
v 0.0000 -0.3800 -0.0220
v -0.0156 -0.3800 -0.0156
v -0.0220 -0.3800 0.0000
v -0.0156 -0.3800 0.0156
v 0.0000 -0.3400 0.0180
v 0.0127 -0.3400 0.0127
v 0.0180 -0.3400 0.0000
v 0.0127 -0.3400 -0.0127
v 0.0000 -0.3400 -0.0180
v -0.0127 -0.3400 -0.0127
v -0.0180 -0.3400 0.0000
v -0.0127 -0.3400 0.0127
v 0.0000 -0.0500 0.0180
v 0.0127 -0.0500 0.0127
v 0.0180 -0.0500 0.0000
v 0.0127 -0.0500 -0.0127
v 0.0000 -0.0500 -0.0180
v -0.0127 -0.0500 -0.0127
v -0.0180 -0.0500 0.0000
v -0.0127 -0.0500 0.0127
v 0.0000 0.1200 0.0180
v 0.0127 0.1200 0.0127
v 0.0180 0.1200 0.0000
v 0.0127 0.1200 -0.0127
v 0.0000 0.1200 -0.0180
v -0.0127 0.1200 -0.0127
v -0.0180 0.1200 0.0000
v -0.0127 0.1200 0.0127
v 0.0000 0.1800 0.0200
v 0.0141 0.1800 0.0141
v 0.0200 0.1800 0.0000
v 0.0141 0.1800 -0.0141
v 0.0000 0.1800 -0.0200
v -0.0141 0.1800 -0.0141
v -0.0200 0.1800 0.0000
v -0.0141 0.1800 0.0141
v 0.0000 0.2200 0.0150
v 0.0106 0.2200 0.0106
v 0.0150 0.2200 0.0000
v 0.0106 0.2200 -0.0106
v 0.0000 0.2200 -0.0150
v -0.0106 0.2200 -0.0106
v -0.0150 0.2200 0.0000
v -0.0106 0.2200 0.0106
v 0.0000 -0.43 0.0000
v 0.0000 0.2300 0.0000
v -0.0280 0.1200 -0.0380
v 0.0280 0.1200 -0.0380
v 0.0280 0.1200 0.0380
v -0.0280 0.1200 0.0380
v -0.0280 0.1800 -0.0380
v 0.0280 0.1800 -0.0380
v 0.0280 0.1800 0.0380
v -0.0280 0.1800 0.0380
v 0.0000 0.1740 0.0380
v 0.0220 0.1500 0.0380
v 0.0000 0.1260 0.0380
v -0.0220 0.1500 0.0380
v 0.0000 0.1640 0.1200
v 0.0170 0.1450 0.1200
v 0.0000 0.1260 0.1200
v -0.0170 0.1450 0.1200
v 0.0000 0.1290 0.2200
v 0.0120 0.1150 0.2200
v 0.0000 0.1010 0.2200
v -0.0120 0.1150 0.2200
v 0.0000 0.0630 0.3100
v 0.0070 0.0550 0.3100
v 0.0000 0.0470 0.3100
v -0.0070 0.0550 0.3100
v 0.0000 -0.015 0.3700
v 0.0000 0.1740 -0.0380
v 0.0220 0.1500 -0.0380
v 0.0000 0.1260 -0.0380
v -0.0220 0.1500 -0.0380
v 0.0000 0.1640 -0.1000
v 0.0170 0.1450 -0.1000
v 0.0000 0.1260 -0.1000
v -0.0170 0.1450 -0.1000
v 0.0000 0.1400 -0.1800
v 0.0130 0.1250 -0.1800
v 0.0000 0.1100 -0.1800
v -0.0130 0.1250 -0.1800
v -0.014 0.1200 -0.2300
v 0.0140 0.1200 -0.2300
v 0.0140 0.0900 -0.2300
v -0.014 0.0900 -0.2300
f 57/2/2 2/2/2 1/2/2
f 58/2/1 49/2/1 50/2/1
f 57/2/2 3/2/2 2/2/2
f 58/2/1 50/2/1 51/2/1
f 57/2/2 4/2/2 3/2/2
f 58/2/1 51/2/1 52/2/1
f 57/2/2 5/2/2 4/2/2
f 58/2/1 52/2/1 53/2/1
f 57/2/2 6/2/2 5/2/2
f 58/2/1 53/2/1 54/2/1
f 57/2/2 7/2/2 6/2/2
f 58/2/1 54/2/1 55/2/1
f 57/2/2 8/2/2 7/2/2
f 58/2/1 55/2/1 56/2/1
f 57/2/2 1/2/2 8/2/2
f 58/2/1 56/2/1 49/2/1
f 1/2 2/2 10/2 9/2
f 2/2 3/2 11/2 10/2
f 3/2 4/2 12/2 11/2
f 4/2 5/2 13/2 12/2
f 5/2 6/2 14/2 13/2
f 6/2 7/2 15/2 14/2
f 7/2 8/2 16/2 15/2
f 8/2 1/2 9/2 16/2
f 9/1 10/1 18/1 17/1
f 10/1 11/1 19/1 18/1
f 11/1 12/1 20/1 19/1
f 12/1 13/1 21/1 20/1
f 13/1 14/1 22/1 21/1
f 14/1 15/1 23/1 22/1
f 15/1 16/1 24/1 23/1
f 16/1 9/1 17/1 24/1
f 17/1 18/1 26/1 25/1
f 18/1 19/1 27/1 26/1
f 19/1 20/1 28/1 27/1
f 20/1 21/1 29/1 28/1
f 21/1 22/1 30/1 29/1
f 22/1 23/1 31/1 30/1
f 23/1 24/1 32/1 31/1
f 24/1 17/1 25/1 32/1
f 25/1 26/1 34/1 33/1
f 26/1 27/1 35/1 34/1
f 27/1 28/1 36/1 35/1
f 28/1 29/1 37/1 36/1
f 29/1 30/1 38/1 37/1
f 30/1 31/1 39/1 38/1
f 31/1 32/1 40/1 39/1
f 32/1 25/1 33/1 40/1
f 33/2 34/2 42/2 41/2
f 34/2 35/2 43/2 42/2
f 35/2 36/2 44/2 43/2
f 36/2 37/2 45/2 44/2
f 37/2 38/2 46/2 45/2
f 38/2 39/2 47/2 46/2
f 39/2 40/2 48/2 47/2
f 40/2 33/2 41/2 48/2
f 41/2 42/2 50/2 49/2
f 42/2 43/2 51/2 50/2
f 43/2 44/2 52/2 51/2
f 44/2 45/2 53/2 52/2
f 45/2 46/2 54/2 53/2
f 46/2 47/2 55/2 54/2
f 47/2 48/2 56/2 55/2
f 48/2 41/2 49/2 56/2
f 62/2/3 61/2/3 65/2/3 66/2/3
f 61/2/5 60/2/5 64/2/5 65/2/5
f 60/2/4 59/2/4 63/2/4 64/2/4
f 59/2/6 62/2/6 66/2/6 63/2/6
f 66/2/1 65/2/1 64/2/1 63/2/1
f 59/2/2 60/2/2 61/2/2 62/2/2
f 67/3 68/3 72/3 71/3
f 68/3 69/3 73/3 72/3
f 69/3 70/3 74/3 73/3
f 70/3 67/3 71/3 74/3
f 71/3 72/3 76/3 75/3
f 72/3 73/3 77/3 76/3
f 73/3 74/3 78/3 77/3
f 74/3 71/3 75/3 78/3
f 75/3 76/3 80/3 79/3
f 76/3 77/3 81/3 80/3
f 77/3 78/3 82/3 81/3
f 78/3 75/3 79/3 82/3
f 79/4 80/4 83/4
f 80/4 81/4 83/4
f 81/4 82/4 83/4
f 82/4 79/4 83/4
f 84/3 88/3 89/3 85/3
f 85/3 89/3 90/3 86/3
f 86/3 90/3 91/3 87/3
f 87/3 91/3 88/3 84/3
f 88/3 92/3 93/3 89/3
f 89/3 93/3 94/3 90/3
f 90/3 94/3 95/3 91/3
f 91/3 95/3 92/3 88/3
f 92/3 97/4 96/4 95/3
f 92/3 93/3 97/4
f 93/3 94/3 98/4 97/4
f 94/3 95/3 99/4 98/4
f 95/3 96/4 99/4
f 96/4 97/4 98/4 99/4
